<svg xmlns="http://www.w3.org/2000/svg" data-name="Layer 102" viewBox="0 0 100 125" x="0px" y="0px"><title>20. Shears</title><path d="M33.08,26.38a49.41,49.41,0,0,0,7.45,15,9.73,9.73,0,0,1,2.82-.87,8.57,8.57,0,0,1,2.34-2.07L35.2,6.13C33.28,7.51,28.57,12.49,33.08,26.38Z"/><path d="M61,43.47A24.17,24.17,0,0,1,58.41,46,8.57,8.57,0,0,1,58,48.24a7.81,7.81,0,0,1,3.13,4l1.34,3.88,4.12-1.34-2.56-7.54A7,7,0,0,0,61,43.47Z"/><path d="M67.71,56l-5.35,1.74a1.53,1.53,0,0,0-1,1.94L72.26,93.18a1.55,1.55,0,0,0,1.95,1l5.35-1.74a1.56,1.56,0,0,0,.9-.77,1.58,1.58,0,0,0,.09-1.17L69.65,57a1.54,1.54,0,0,0-.76-.9,1.57,1.57,0,0,0-.7-.17A1.61,1.61,0,0,0,67.71,56Z"/><path d="M37,47.38l-2.63,7.5,4.08,1.45,2.14-6.15a5.44,5.44,0,0,1,1.34-2.12,8.33,8.33,0,0,1,.36-5.81A8.21,8.21,0,0,0,37,47.38Z"/><path d="M58.27,44.05c2.93-2.72,7-7.94,10.48-17.56,4.86-13.64.31-18.84-1.55-20.3l-11.77,33A8.43,8.43,0,0,1,58.27,44.05Z"/><path d="M20.4,92.18l5.3,1.89a1.54,1.54,0,0,0,2-.93L39.5,59.94a1.51,1.51,0,0,0-.06-1.18,1.49,1.49,0,0,0-.88-.79l-5.3-1.89a1.52,1.52,0,0,0-.51-.09,1.56,1.56,0,0,0-.67.15,1.51,1.51,0,0,0-.79.87L19.47,90.21A1.54,1.54,0,0,0,20.4,92.18Z"/><path d="M43.07,45.64A6.93,6.93,0,1,0,50,38.71,6.94,6.94,0,0,0,43.07,45.64Zm11.14,0A4.21,4.21,0,1,1,50,41.43,4.22,4.22,0,0,1,54.21,45.64Z"/><path d="M50,42.93a2.72,2.72,0,1,0,2.71,2.71A2.71,2.71,0,0,0,50,42.93Z"/><text x="0" y="115" fill="#000000" font-size="5px" font-weight="bold" font-family="'Helvetica Neue', Helvetica, Arial-Unicode, Arial, Sans-serif">Created by Pascal Heß</text><text x="0" y="120" fill="#000000" font-size="5px" font-weight="bold" font-family="'Helvetica Neue', Helvetica, Arial-Unicode, Arial, Sans-serif">from the Noun Project</text></svg>