<svg xmlns="http://www.w3.org/2000/svg" data-name="Layer 102" viewBox="0 0 100 125" x="0px" y="0px"><title>49. Land And Sun</title><path d="M66.21,65.78a48.08,48.08,0,0,1,5.86,10.53,27.58,27.58,0,0,1,17.18-4.67V55.73C86,55.7,72.45,56.16,66.21,65.78Z"/><path d="M65.24,64.53c6.82-9.94,20.54-10.37,24-10.31V47.06c-20.79.77-28.92,8.64-30.7,10.71A44.62,44.62,0,0,1,65.24,64.53Z"/><path d="M89.25,73.15c-2.23-.15-10-.25-16.62,4.61a61.84,61.84,0,0,1,3,11.49H89.25Z"/><path d="M47.15,89.25H62.84l.33.19C54.51,59.49,16.45,58.63,10.75,58.68V72.94C15.15,72.76,36.41,72.78,47.15,89.25Z"/><path d="M10.75,57.18c6,0,45.12.92,53.92,32.07h9.45q-2.28-13.55-9.21-22.84a.8.8,0,0,1-.29-.37q-8.94-11.73-25.3-16.38a78,78,0,0,0-28.57-2.15Z"/><path d="M45.45,89.43c-10.5-15.26-30.74-15.17-34.7-15V89.25H45.06Z"/><circle cx="50.04" cy="27.5" r="7.83"/><path d="M50.75,15V10a.75.75,0,0,0-1.5,0v5a.75.75,0,0,0,1.5,0Z"/><path d="M49.25,40v5a.75.75,0,0,0,1.5,0V40a.75.75,0,0,0-1.5,0Z"/><path d="M68.25,27.5a.76.76,0,0,0-.75-.75h-5a.75.75,0,0,0,0,1.5h5A.76.76,0,0,0,68.25,27.5Z"/><path d="M38.25,27.5a.76.76,0,0,0-.75-.75h-5a.75.75,0,0,0,0,1.5h5A.76.76,0,0,0,38.25,27.5Z"/><path d="M58.84,19.41a.74.74,0,0,0,.53-.22l3.53-3.53a.75.75,0,1,0-1.06-1.06l-3.53,3.53a.75.75,0,0,0,0,1.06A.74.74,0,0,0,58.84,19.41Z"/><path d="M37.63,40.62a.74.74,0,0,0,.53-.22l3.53-3.53a.75.75,0,0,0-1.06-1.06L37.1,39.34a.74.74,0,0,0,0,1.06A.71.71,0,0,0,37.63,40.62Z"/><path d="M58.31,36.87l3.53,3.53a.74.74,0,0,0,.53.22.71.71,0,0,0,.53-.22.74.74,0,0,0,0-1.06l-3.53-3.53a.75.75,0,0,0-1.06,1.06Z"/><path d="M41.69,18.13,38.16,14.6a.75.75,0,1,0-1.06,1.06l3.53,3.53a.75.75,0,0,0,1.06,0A.75.75,0,0,0,41.69,18.13Z"/><text x="0" y="115" fill="#000000" font-size="5px" font-weight="bold" font-family="'Helvetica Neue', Helvetica, Arial-Unicode, Arial, Sans-serif">Created by Pascal Heß</text><text x="0" y="120" fill="#000000" font-size="5px" font-weight="bold" font-family="'Helvetica Neue', Helvetica, Arial-Unicode, Arial, Sans-serif">from the Noun Project</text></svg>