<svg xmlns="http://www.w3.org/2000/svg" data-name="Layer 102" viewBox="0 0 100 125" x="0px" y="0px"><title>93. Play Sand</title><path d="M88.91,15a2.51,2.51,0,0,0-1.41-3.24l-3.22-1.27A2.49,2.49,0,0,0,81,11.93L71.81,35.36l7.87,3.1Z"/><path d="M24.43,14.27a2.49,2.49,0,0,0-2.87-2.06l-3.42.56a2.5,2.5,0,0,0-2.05,2.88l4,24.2,8.35-1.38Z"/><path d="M49.25,63.16c1.1,0,2.16,0,3.19-.1L57.27,50.8a3,3,0,0,1,4-1.72A3,3,0,0,1,63,53L59.23,62.5c1.1-.09,2.17-.15,3.21-.16l3.24-8.23a3.05,3.05,0,0,1,4-1.72,3.05,3.05,0,0,1,1.73,4l-2.72,6.91a11.85,11.85,0,0,1,2.62,1.35l2.83-7.18A3.07,3.07,0,0,1,77,55.49a3.12,3.12,0,0,1,1.11.21,3.06,3.06,0,0,1,1.72,4L75.9,69.52a31.64,31.64,0,0,1,1.87,3.24L82.42,61a8.1,8.1,0,0,0-4.56-10.5l-.66-.27h0l-5.78-2.27L65,45.38a8.08,8.08,0,0,0-10.5,4.56Z"/><path d="M24.69,72.47a13.44,13.44,0,0,1,2.71-4.29c-3.55-3.7-5.56-13.53-6.11-16.53L14,52.85c.29,2.78,1.66,13.33,6,20.18A23.77,23.77,0,0,1,24.69,72.47Z"/><path d="M32.34,49.82h0l-1.23.2c.38,2.55,1.34,10,.33,15.09A20.71,20.71,0,0,1,40,62.89,65.86,65.86,0,0,0,38.4,48.81Z"/><path d="M29.63,50.27l-4.4.72-2.46.41c.76,4.18,2.85,12.81,5.7,15.74.35-.3.73-.6,1.14-.89C31,62.21,30.21,54.2,29.63,50.27Z"/><rect x="69.16" y="36.94" width="8.83" height="10.94" transform="translate(7.15 95.33) rotate(-68.5)"/><rect x="19.76" y="40.58" width="10.94" height="8.83" transform="translate(-7.01 4.73) rotate(-9.4)"/><path d="M91.07,83.51c-4.14-3.44-10.92-2.77-11-2.76a.77.77,0,0,1-.79-.5C73.1,62.71,67,63.27,57,64.2a62.66,62.66,0,0,1-12.06.28C28.69,63,26,73.29,26,73.39a.74.74,0,0,1-.73.57C11,74,6.83,85.88,5.94,89.25H94.16A8.85,8.85,0,0,0,91.07,83.51ZM51.65,73a.74.74,0,0,1-.91.53c-12-3.21-16.29,7.85-16.47,8.32a.74.74,0,0,1-.7.49.6.6,0,0,1-.26,0,.74.74,0,0,1-.44-1c.05-.13,4.89-12.81,18.25-9.25A.75.75,0,0,1,51.65,73Zm23.83,9.16a.73.73,0,0,1-1-.09c-5.69-6.74-13.64-2.64-13.72-2.6a.75.75,0,1,1-.7-1.33c.09-.05,9.11-4.69,15.56,3A.74.74,0,0,1,75.48,82.14Z"/><text x="0" y="115" fill="#000000" font-size="5px" font-weight="bold" font-family="'Helvetica Neue', Helvetica, Arial-Unicode, Arial, Sans-serif">Created by Pascal Heß</text><text x="0" y="120" fill="#000000" font-size="5px" font-weight="bold" font-family="'Helvetica Neue', Helvetica, Arial-Unicode, Arial, Sans-serif">from the Noun Project</text></svg>